<svg id="Idea_1" data-name="Idea 1" xmlns="http://www.w3.org/2000/svg" viewBox="0 0 436 210.12"><defs><style>.cls-1{fill:#231f20;}.cls-2{fill:none;stroke:#231f20;stroke-miterlimit:10;stroke-width:8px;}</style></defs><g id="Name"><polygon class="cls-1" points="336.16 201.1 336.16 201.1 336.15 201.11 336.15 201.11 336.16 201.1"/><path class="cls-1" d="M388.92,196.51l0,0a12.38,12.38,0,0,1-2.62,1.32l-.63.27.05,0-.25.11a14.36,14.36,0,0,1-1.56.67c-.68.21-1.38.43-2.07.63-.17,0-.34.09-.52.12l-.22,0c-.37.11-1,.24-1,.25a3.77,3.77,0,0,1-.89,0c-.08,0-.16,0-.25,0l-.15.05a9.47,9.47,0,0,1-1,.12,2.12,2.12,0,0,1-.36.1,8.68,8.68,0,0,1-1.34.13,2.53,2.53,0,0,1-.67-.1l-.92.16a9.57,9.57,0,0,1-3.74-.25l-.38-.15a5.3,5.3,0,0,1-.45-.34l-.19-.27c-.07-.14-.15-.28-.21-.42-1.4-3.75-.81-10.91-.28-18.58a97.37,97.37,0,0,0,1.05-9.73c.77-7.88,1.17-24.77.81-28.28,0-3.54.13-7.09.29-10.63.53-2.73-1.16-5.83-4.2-5.66-3.31,0-4.49,3.06-4.36,5.92-.25,3.92-.25,7.86-.38,11.79-.08,6-.31,12-.6,17.94a16.25,16.25,0,0,0-6.5.73c-10.22,3.4-14,10.88-16.52,18a39.07,39.07,0,0,0-2.09,6.18c-.36,1-.73,2-1.13,3l-1.22,1.66-.21.26s0,0,0,0,0,.05-.07.08v0a.25.25,0,0,0,0,.07h0l-.1.14a1.48,1.48,0,0,1-.22.29v0h0s0,0,0,0l0,0,0,.08s0,0,0,0h0l-.07.08a.56.56,0,0,1,0,.08l-.05.06v0a1.21,1.21,0,0,1-.28.36,1.39,1.39,0,0,1-.21.27.71.71,0,0,1-.1.14v0a9.52,9.52,0,0,1-2.51,2.59c-.11.08-.22.14-.33.21l-.2.11a19.62,19.62,0,0,1-3.65,1.47,58.84,58.84,0,0,1-6.36,1.09l-.87,0-.57,0c-3.68-.53-2.37-.11-5.53-1.45l-.34-.27a8.93,8.93,0,0,1-.66-.86,13.17,13.17,0,0,1-.79-1.72,14.05,14.05,0,0,1-.43-4.28,22.44,22.44,0,0,0,11.59-1.7c4.36-1.72,9.06-3.87,11.21-8.3a14,14,0,0,0,1.08-11.52c-2.13-4.52-7.07-7.5-12.08-6.56-8.92,1.4-15.09,8.53-18.11,16.76a3,3,0,0,1-.18.65,8.19,8.19,0,0,1-.37.83,5.2,5.2,0,0,1-.26.72.17.17,0,0,1,0,.07c.37-.72.23-.43,0,0l0,.14a6.78,6.78,0,0,1-.39,1.47,7.55,7.55,0,0,1-.64,2.1l0,.13a35.73,35.73,0,0,1-4.24,7.66c-3,3.24-1.31,1.84-3.78,3.81l-.1.05a4.06,4.06,0,0,1-.78.39l-.84.42-.16-.07a2.6,2.6,0,0,1-.39.05,3.54,3.54,0,0,1-1.65,0,4.1,4.1,0,0,1-.84-.14,3.68,3.68,0,0,1-1.69-.89,5.37,5.37,0,0,1-.84-.81c-.17-.14-.36-.26-.52-.42a5.22,5.22,0,0,1-1-1.42,3.45,3.45,0,0,1-.2-.32,1.48,1.48,0,0,1-.13-.21l-.08-.12a7.22,7.22,0,0,0-.5-.6,26.39,26.39,0,0,1-1.7-3c3.41-5.42,6.1-11.25,9-17a157.68,157.68,0,0,0,7.27-18.66c1.47-4.57,2.66-9.3,2.47-14.13,0-3.36-.22-7-2.13-9.87-2.64-4-8.08-4.36-12-2.18-4.73,2.35-7.73,7-10.06,11.58-6.76,14.25-9.64,31.1-4.62,46.32.18.9.41,1.8.68,2.72-.7,1-1.43,2-2.18,2.93-1.23,1.43-2.56,2.85-3.78,4.33h0a9.81,9.81,0,0,0-1.6,1.27c-.22.21-.48.42-.76.64a8.59,8.59,0,0,0-1.52,1c-.19.14.18-.1.22-.12h0a1.49,1.49,0,0,0-.52.38l-.14,0a22.24,22.24,0,0,1-9.18,3c-4.87-.24-5.79-1.83-7.27-4.17-1.47-3.62-1.79-4.58-1.82-6.48a39.06,39.06,0,0,0,9.58-2.36c1-.36,2-.72,2.92-1.1.07,0,.13-.11.2-.15a4.56,4.56,0,0,1,1.62-.61,19.84,19.84,0,0,0,6.25-4.07c5.19-4.84,6.27-13.15-1-16.54-5-2.35-11.15-1-15.68,1.89a29.56,29.56,0,0,0-10.86,14.26c-.49-.07-.89-.15-1.2-.22a30,30,0,0,0,.64-7.46c-.16-11.3-13.52-12.2-17-2.14a10.13,10.13,0,0,0,2,10.63,19.67,19.67,0,0,0,4.39,3.23c-1.61,4.09-4.45,9.77-8.17,13.58-.19.14-1.33,1.14-2.19,1.75l-.42.22a9.63,9.63,0,0,1-1.38.54l-.66.12c-.36.05-.75.08-1,.1a10.28,10.28,0,0,1-1.65-.18c-.15-.05-.29-.12-.43-.18h0a2.48,2.48,0,0,1-.19-.26c-.13-.24-.26-.49-.37-.75-2-5-1.4-14-.72-23.8.23-2.62.29-5.25.64-7.86.27-1.58.42-3.33-.7-4.63a4.17,4.17,0,0,0-5.49-.94,4.88,4.88,0,0,0-1.2.62,9.94,9.94,0,0,0-.8.79c.1-.1.39-.4.12-.14a3.82,3.82,0,0,0-1.38,2.29.27.27,0,0,0,0,.09,6.18,6.18,0,0,0-.69,3.07,51.77,51.77,0,0,1-3.26,12.54c-3.57,11.44-6.71,18.12-11.84,18.87l-.16-.22a20.11,20.11,0,0,1-1.52-3.83c-.79-2.55-1.09-10.65-.37-17.72.39-1.88.72-3.77,1-5.66.13-1.58.57-3.61.71-5.54a.74.74,0,0,1,0-.14.38.38,0,0,1,0-.15c0-.06,0-.12,0-.18l0-.24a2,2,0,0,1,0-.25s0,0,0-.06a9.69,9.69,0,0,1,.34-2.2.61.61,0,0,1-.06-.28.76.76,0,0,1,.05-.33c.15-.66.25-1.33.34-2,0,0,0-.08,0-.13a5.26,5.26,0,0,0-3.44-4.25c-3.36-1.09-6.9-.06-10.21.82a2.8,2.8,0,0,1-.63.26h0c-.45.25-.91.47-1.33.7l-1.15.61a2.23,2.23,0,0,1-.9.52h0a14.07,14.07,0,0,1-1.17.86c-.34.27-.67.55-1,.82-.11.11-.21.22-.33.33-.7.68-1.38,1.36-2.05,2.06-5.63,6.42-6.94,10.57-11,18.91q-1.5,3.72-2.8,7.53a28.2,28.2,0,0,1-5.61,8,7.05,7.05,0,0,1-.85.37,5.6,5.6,0,0,1-.81.1h-.13a11,11,0,0,1-1.26-.2,7.22,7.22,0,0,1-.76-.31,5,5,0,0,1-.63-.48c-1.81-1.78-4.91-15-2.31-24.85,0-.17.38-1.38.61-1.94.63-2.32,2.53-4.67,1.43-7.12-1.06-2.7-4.64-3.21-6.67-1.55a3.83,3.83,0,0,0-1.12.67,82.1,82.1,0,0,1-6.62,5c0-4.6-1-9.12-4.31-12.23a7.53,7.53,0,0,0-7.88-.91c-7.6,4-9.58,15.26-4.41,21.91a11.24,11.24,0,0,0,6.11,3.51c-2.18,7.3-5.86,14.54-9.65,17.86a12.88,12.88,0,0,1-1.14.83,11.15,11.15,0,0,1-1.8.81,7.36,7.36,0,0,1-.82.12L100,202l-.19-.15a7.57,7.57,0,0,1-.63-.75,14.44,14.44,0,0,1-.79-1.8c-1.3-3.61-1.55-10.29-1.48-16.75-.18-4.78.06-10-2.67-14.2-2.65-3.8-8-3.5-11.71-1.62a20.41,20.41,0,0,0-6.37,4.83c0-1.61,0-3.22,0-4.83s.27-3.53-.71-5a4.08,4.08,0,0,0-5.8-1.4,4,4,0,0,0-1.91,1.38c-.88,1.12-.86,2.59-1.22,3.91-.22,1.56-.79,2.72-1.83,6.35a97.66,97.66,0,0,1-7.22,18.49c-2.31,4.55-2.06,4.72-5.59,9l0,.05c-.27.26-.55.51-.84.76-.75-2.82-.45-7.67-.27-13.71.24-4.51.63-9,1.12-13.49A273.13,273.13,0,0,0,58,142.88c.38-2.8.66-5.62.76-8.45a6.28,6.28,0,0,0-1-4.21,4.41,4.41,0,0,0-7.63,1.65c-3.08,12.49-4.89,25.32-6.47,38.08-.06.58-.11,1.15-.17,1.72-.61,2.16-1.26,4.32-2,6.6-2.54,7-3.43,9.55-7.55,14.4-4.34,3.9-8.49,6.37-12.59,5.34C11,195.14,7.18,176.62,8.8,162.3A188.26,188.26,0,0,1,15,129.54c2-5.19-5.58-8.36-7.86-3.22A188.52,188.52,0,0,0,1,155.89C-.71,168.2-.66,181.26,4.7,192.71c2,3.87,4.35,7.71,7.91,10.34a18,18,0,0,0,16.55,2.7,30.54,30.54,0,0,0,13-9.79,61.64,61.64,0,0,0,.54,6.22c.89,4.81,5.58,8.5,10.45,6.59s7.69-6.66,10.13-11q1.41-2.62,2.69-5.3c-.11,1.94-.2,3.89-.33,5.84-.37,2.64-.67,5.3-1,7.92a4.27,4.27,0,0,0,6.85,3.87c1.89-1.51,1.74-4.1,2.16-6.29.14-1.44.25-2.89.35-4.34,1.18-7.71,3-14.74,5.56-18.32,3.64-5.26,3.52-5.27,7.5-7.18l.3-.11.31,0c.54,1.29,1,10,.88,14,0-.38,0-.76,0-1.14,0,6.86.21,14.5,4.44,20.23,2.71,3.51,7.59,4.36,11.62,2.84,10.68-4.4,15.6-17.83,18.42-28.55a41.74,41.74,0,0,0,4.66-3,45.34,45.34,0,0,0-.07,10.86c.79,7.27,2.16,17.11,10.2,19.66A12.08,12.08,0,0,0,151.16,205c.67-.82,1.3-1.67,1.92-2.54,2.4,4.38,6.52,7.52,12,5.69,4.21-1.56,7.24-5.06,9.77-8.76.08.4.14.8.24,1.19,2.39,9.94,8.77,13.28,17.62,7.45,3.74-2.66,6.13-6.43,7.94-10.54.82,8,4,14.77,13.82,13.72,8.64-.8,15.93-10.7,19.83-20.86a21.46,21.46,0,0,0,2.1.52c.26,7.6,4,16.08,11.74,18.51,6.09,2,13.82.3,19.32-3.4l.11,0h0c.18-.14.38-.26.57-.38l.12-.09a5.83,5.83,0,0,1,.7-.49,2.45,2.45,0,0,1,.85-.57l.18-.13.24-.19.27-.22c.09-.08.16-.17.25-.24a6,6,0,0,1,.64-.4l.15-.15.18-.17,0,0h0c.12-.11.23-.21.36-.31a5.2,5.2,0,0,1,.76-.54l.08-.07a4.78,4.78,0,0,1,.69-.66l.12-.08c.92-1.18,1.9-2.31,2.89-3.44,2.15,2.24,4.24,4.61,6.91,6.24a4.89,4.89,0,0,1,1.4.72h0l.24.13h0c.48.2,1,.38,1.46.54h0l.11,0a11.26,11.26,0,0,0,3.11.65H290c.39,0,.79,0,1.18,0,.14,0,.28,0,.41,0a.76.76,0,0,0,.16,0,17.88,17.88,0,0,0,1.95-.17,19.88,19.88,0,0,0,5.86-2.79,21.65,21.65,0,0,0,4-4l.06-.07c2.35,5,7.2,7.92,14.59,8.17a32.85,32.85,0,0,0,15.91-3.88v0l.14-.08h0s.05,0,.08,0h.1l.11-.09a2.89,2.89,0,0,0,.85-.48l.06,0,.19-.06a1.58,1.58,0,0,0,.32-.2l.16-.13a.92.92,0,0,0,.11-.11,9.94,9.94,0,0,0,6.39,5.74c7.63,2.74,14.09-1.39,18.34-7.52a12.14,12.14,0,0,0,3.33,5.76,2.35,2.35,0,0,1,.32.23l.17.22a9.38,9.38,0,0,0,2.13,1.27c8.42,3.13,19.4-.47,23-9a3.63,3.63,0,0,0-.2-2.74A6,6,0,0,1,388.92,196.51Zm-64.51-26.08h0l.52.06.16.06c.3.22.6.46.82.64a6.61,6.61,0,0,1,.63.77c0,.07.07.13.09.19a5.2,5.2,0,0,1,.1.78,9.73,9.73,0,0,1-.23,1.62,6.37,6.37,0,0,1-1.37,2.71l-.13.14a7.7,7.7,0,0,1-.6.54c-.3.59-8.54,4.1-9.73,3.91a7.86,7.86,0,0,1-2.51,0C314.41,175.67,318.68,170.8,324.41,170.43ZM258,173.63c.38,0,.76,0,1.14,0l.41,0,.61.11a6.5,6.5,0,0,1,.61.25,4.15,4.15,0,0,1,.34.24.43.43,0,0,1,0,0q-.13.41-.3.78c-.05.12-.12.24-.17.35s-.3.44-.46.65c-.65,1.77-8.15,4.9-12.93,6.12C249.85,177.47,254.07,173.86,258,173.63Zm-142.25.48-.23,0c-.25-.09-.5-.18-.74-.29s-.27-.21-.4-.32l-.24-.31a7.52,7.52,0,0,1,.76-7.53l.26-.33C116.06,167.5,116.19,170.61,115.78,174.11Zm59.14,1.23c-.13,1.07-.25,2.15-.37,3.23-1.22,5.66-3,10.56-5.2,13.79-3.63,5.18-4.59,6.65-7.2,7.79h0l-.13,0-.24-.1a1.89,1.89,0,0,1-.27-.2c-.07-.07-.14-.17-.24-.28s-.35-.46-.51-.7a1,1,0,0,0-.08-.14,13.29,13.29,0,0,1-1.48-7h0v0h0a.75.75,0,0,0,.05-.16v0a1.31,1.31,0,0,0,0-.59v-.05c0-.09.07-.18.1-.28.09-.41.13-.85.23-1.25a.63.63,0,0,1,.1-.2,3.29,3.29,0,0,1,.34-.89l0,0c.07-.16.13-.32.21-.48a1.36,1.36,0,0,1,0-.17.76.76,0,0,0,0-.11,8.94,8.94,0,0,0,.53-1.23s0-.05,0-.08a3.85,3.85,0,0,1,.31-.82.47.47,0,0,1,.05-.25v0l0-.05.12-.28c.19-.43.37-.87.6-1.28a4.12,4.12,0,0,1,.59-1.07,4.77,4.77,0,0,1,.45-.94c.2-.43.41-.86.62-1.28,0,0,0,0,0,0l.06-.07.09-.06a1.5,1.5,0,0,1,0-.22,1.29,1.29,0,0,0,.16-.17,1.15,1.15,0,0,0,.27-.45.38.38,0,0,0,0-.1c0-.06.1-.11.14-.17.17-.31.36-.6.52-.92.08-.17.16-.35.26-.52a.88.88,0,0,1,.16-.32,4.07,4.07,0,0,0,.52-.74,2,2,0,0,0,.21-.41.81.81,0,0,1,.37-.42l.05-.08,0,0v0a2.41,2.41,0,0,1,.36-.48l.24-.18c.17-.27.32-.55.5-.81a.84.84,0,0,1,.2-.18.71.71,0,0,1,.1-.14,7.32,7.32,0,0,1,.67-.58l.06-.06h0l.13-.11.09,0a.26.26,0,0,1,0-.08.94.94,0,0,1,.09-.12,10.61,10.61,0,0,1,4.61-2.46,11.48,11.48,0,0,1,1.89-.06s0,0,0,0h0a.79.79,0,0,0,0,.48C175.32,172.28,175.14,173.85,174.92,175.34Zm53.87,2.4c-.23-.19-.32-.31-.38-.36s-.11-.16-.17-.23-.09-.17-.12-.26,0-.21-.05-.3a8.48,8.48,0,0,1,.13-.88,8.62,8.62,0,0,1,.44-1l.13-.18A15.35,15.35,0,0,1,228.79,177.74Zm50.79.34c-.24-1.16-.49-2.43-.76-3.85A57.64,57.64,0,0,1,280.58,155c1.83-8,7.1-19.66,11.94-20.32.05.12.11.24.15.36C295.42,143.54,287.46,162.84,279.58,178.08Zm81.19.85a49.33,49.33,0,0,1-1.14,5.65c-2,6-2.49,6.7-6.23,11.76-2,2.34-.83,1.41-3.54,3.3-.33.15-.68.29-.92.39s-.56.12-.84.16a6.12,6.12,0,0,1-3.76-1l-.19-.21c0-.11-.11-.22-.15-.33a26.9,26.9,0,0,1,.85-9.82c.69-1.94,1.36-3.93,2-5.79a21.7,21.7,0,0,1,5.51-7.68,17,17,0,0,1,8.9-4.77C361.13,173.39,361,176.16,360.77,178.93Z" transform="translate(0 -1.16)"/></g><path class="cls-1" d="M250.41,68.72c-3.9-6.89-7.64-14.21-13.69-19.49-1-.81-2.06-2.18-3.51-1.78a2,2,0,0,0-.48,3.65c5,3.53,10,11.85,14,19.3A2,2,0,1,0,250.41,68.72Z" transform="translate(0 -1.16)"/><path class="cls-1" d="M248.72,80.8a99.83,99.83,0,0,0-18-22.21,2,2,0,0,0-2.18,3.24c6.35,6.45,10.69,11.46,15.28,18.74.83,1.06,1.21,2.73,2.6,3.17A2,2,0,0,0,248.72,80.8Z" transform="translate(0 -1.16)"/><path class="cls-1" d="M244.33,93.46A91.66,91.66,0,0,0,227.28,68.1a2.14,2.14,0,0,0-1.24-1,2,2,0,0,0-2.26,2.94c4.34,5,7.15,7.94,10.5,13.29,1.82,3,3.57,6,5.19,9.15.93,1.54,1.3,3.52,2.53,4.82a2,2,0,0,0,3.15-1C245.43,95.25,244.71,94.38,244.33,93.46Z" transform="translate(0 -1.16)"/><path class="cls-1" d="M224,83.22c-.14-2.61-.29-5.22-.59-7.81,0-.27-.53-5.2-.64-5.41-1.17-1.26-3.42,3.68-3.36,5.41a166.79,166.79,0,0,1,.32,30c-.63,6.74-.84,11-2.65,17.66a2,2,0,1,0,4,.53C224.2,110.42,224.64,96.68,224,83.22Z" transform="translate(0 -1.16)"/><path class="cls-1" d="M215.42,89a37.92,37.92,0,0,0-.34-6.23,2,2,0,0,0-3.83.77c1,16.54-1.3,30.24-4.73,46.31a2,2,0,1,0,3.77,1.49c2.14-10.44,4.27-20.94,5-31.59C215.53,96.12,215.44,92.53,215.42,89Z" transform="translate(0 -1.16)"/><path class="cls-1" d="M205.94,94.37c0-.41,0-1-.24-1.24a2,2,0,0,0-3-.54h0l0,0v0l-.11.13h0l0,0h0l0,0v0l-.05.06s0,0,0,0h0s0,0-.05.05l0,0h0l-.08.1,0,0,0,0,.05-.06h0l-.06.06h0l0,0h0l0,0h0l0,0h0l0,0a1.81,1.81,0,0,0-.18.4c-1.43,14.32-2.09,24.47-5.72,38.67-.18,1.22-1.11,2.51-.41,3.69a2,2,0,0,0,3.66-.47c3.45-12.19,4.62-23.23,5.81-34.83.22-2,.31-4,.52-5.92a1.81,1.81,0,0,0,0-.37v0Z" transform="translate(0 -1.16)"/><path class="cls-1" d="M195.68,102.62a1.82,1.82,0,0,0-1.16-.88.67.67,0,0,1-.09.14l-.09.08a1.14,1.14,0,0,1-.11.11l-.06.05-.06.07a2.29,2.29,0,0,1-.27.27c-.06.05-.07.05,0,0l-.06.06-.09.07-.07.06h0l0,0h0l0,0h0l0,0,0,0-.12.12,0,.05a.44.44,0,0,1-.08.11l-.07.06-.12.12-.07.07-.07.06a.25.25,0,0,1,0,.07.94.94,0,0,1-.1.1s0,0,0,0,0,0,0,0h0l-.07.1-.08.09h0c-.07.07-.14.16-.2.23l-.16.18-.06.07s0,0,0,0,0,0,0,0a.8.8,0,0,1-.17.15h0a1.47,1.47,0,0,1-.1.13l0,0a.43.43,0,0,1-.1.09A243.7,243.7,0,0,1,186.28,134a2,2,0,0,0,1.93,2.53c1.6,0,2-1.59,2.29-2.87a249.49,249.49,0,0,0,5.37-29.35v0l.06-.45c0,.07,0,.23,0,.35A2,2,0,0,0,195.68,102.62Z" transform="translate(0 -1.16)"/><path class="cls-1" d="M183.77,114.64a1.89,1.89,0,0,0-1.79-.94h0l-.08.06-.06.09,0,0a.66.66,0,0,1-.2.14.8.8,0,0,1-.13.13h0l-.07.07a.69.69,0,0,1-.13.11c.05,0,.06,0,0,0s-.13.07-.16.12,0,0-.06,0h0l0,0s0,0,0,0h0l0,0-.15.13,0,0a1.18,1.18,0,0,1-.22.17l-.07.07s-.08.08,0,0h0l-.06.06-.06.06-.06.07a.31.31,0,0,1-.13.1h0c-.3,3.61-2.13,9.56-3.66,14.43-.51,1.58-1,3.17-1.49,4.75a2,2,0,0,0,2.94,2.26,3.07,3.07,0,0,0,1.19-2c.46-1.57,1-3.12,1.45-4.69,1.39-4.58,3-9.13,3.45-13.92A2,2,0,0,0,183.77,114.64Z" transform="translate(0 -1.16)"/><path class="cls-1" d="M151.56,36.27l0-.06h0a1,1,0,0,1-.14-.16l0,0-.05,0a.45.45,0,0,1-.13-.1s-.12-.15-.05-.06l-.09-.13-.06,0,0,0-.07-.07-.13-.14a.3.3,0,0,0-.08-.08l-.19-.21-.09-.07,0,0v0l0,0a1.77,1.77,0,0,1-.5-.52.61.61,0,0,1-.07-.1l0,0,0,0a1,1,0,0,1-.22-.19s-.14-.16-.07-.09l-.06-.06,0,0,0,0a1.42,1.42,0,0,1-.28-.27.42.42,0,0,1-.16-.11s0,0,0,0h0a.7.7,0,0,1-.16-.14,1.59,1.59,0,0,1-.18-.22h0l-.05-.05h0l0,0a.25.25,0,0,1-.12-.11s0,0,0,0l-.11-.1,0,0-.06-.06a.13.13,0,0,1-.06-.07h0l-.06-.06,0,0a50.42,50.42,0,0,0-11.3,2c-3.14.9-6.05,2.42-9.14,3.46a33.2,33.2,0,0,1-3.64,1,2,2,0,0,0,1.07,3.86c4.79-.93,9-3.49,13.73-4.73,5-1.51,8.15-1.52,13-1.86A.67.67,0,0,1,151.56,36.27Z" transform="translate(0 -1.16)"/><path class="cls-1" d="M160,45.74s0,0,0,0h0a.5.5,0,0,1-.08-.14h0v0h0l0,0h0l0,0,0,0,0,0,0,0-.1-.1,0,0h0a1.33,1.33,0,0,1-.25-.29h0l0,0-.08-.09h0l-.09-.1h0a1.79,1.79,0,0,1-.3-.38,1.55,1.55,0,0,1-.13-.17h0s0,0,0,0l-.05-.06s0,0,0,0v0l0-.05-.15-.17h0l-.08-.06c-.09-.1.06.05-.05-.06a2.33,2.33,0,0,1-.3-.35s0,0,0,0h0s-.07-.07-.1-.1h0a.34.34,0,0,1-.09-.12s0,0,0,0l-.05,0h0l0,0h0a.44.44,0,0,1-.2-.18s0,0,0-.05l-.05-.07h0l-.07-.11v0l-.06-.08h0a.28.28,0,0,1-.09-.1s0,0,0,0h0l-.06-.07a88.8,88.8,0,0,0-14.74,1.35c-4.57.86-9,2.37-13.47,3.53-2.52.63-5,1.32-7.5,2.11-.93.36-2.12.44-2.66,1.39a2,2,0,0,0,2.26,2.94c7.69-2.29,15.41-4.61,23.26-6.27a84,84,0,0,1,9.46-1c2.09-.23,4.3.16,6.33-.28a1.11,1.11,0,0,0,.19-.09h0Z" transform="translate(0 -1.16)"/><path class="cls-1" d="M167.84,56.59h0l-.05-.06h0l0-.07h0l0,0a.31.31,0,0,1-.09-.11l0,.06h0a1.63,1.63,0,0,1-.11-.17l-.08-.12v0h0s0,0,0,0v0s0,0,0,0a.41.41,0,0,1-.07-.11h0v-.05l-.06,0c-.06-.08-.05-.09,0,0-.06-.11-.1-.12-.13-.23l0,0h0l0,0,0,0h0l0,0,0,0,0-.06,0,0v0l-.05-.07c.05.07,0,0,0-.06l0-.06,0,0v0l-.08-.09h0l0,0,0,0h0l0-.08,0,0h0l0-.05,0-.06-.05-.07,0-.07-.05-.07h0a.25.25,0,0,1,0-.07h0a.44.44,0,0,1-.1-.15v0l0,0s0,0,0,0a.56.56,0,0,1-.05-.08h0l0,0s0,0,0-.06a.75.75,0,0,1-.07-.12h0l0,0h0v0s0,0,0,0a138.4,138.4,0,0,0-38.27,5.43c-2.74.78-5.49,1.47-8.26,2.11-1.06.34-2.38.51-3.12,1.41a2,2,0,0,0,2.58,2.94c3.82-1,12.58-3.41,18.27-4.77,10.26-2.05,18.19-3.18,28.89-3.12a1.88,1.88,0,0,0,1.76-1.11Z" transform="translate(0 -1.16)"/><path class="cls-1" d="M165.27,65.8a172.85,172.85,0,0,0-31.68,3.35,119.94,119.94,0,0,0-17.11,4.39,2.24,2.24,0,0,0-1.75,1A2,2,0,0,0,117,77.51a165.71,165.71,0,0,1,48.74-7.73A2,2,0,1,0,165.27,65.8Z" transform="translate(0 -1.16)"/><path class="cls-1" d="M154.25,77c-1-.57-2.23,0-3.32,0-11,1.35-22.38,2.5-32.84,6.37a2,2,0,0,0,1.75,3.5C131.73,82.91,142.67,82,154,80.5A2,2,0,0,0,154.25,77Z" transform="translate(0 -1.16)"/><path class="cls-1" d="M193.14,24.23c-1-2.63-3-4.72-4.72-6.89a68,68,0,0,0-11.8-10.88c-1.22-.75-2.33-2.35-3.91-2a2,2,0,0,0-.48,3.66c2.6,1.88,3.36,2.49,5.35,4.08a61.43,61.43,0,0,1,11.09,12c1,1.3.19,1.19,1.54,2.3A2,2,0,0,0,193.14,24.23Z" transform="translate(0 -1.16)"/><path class="cls-1" d="M187.61,37.28h0a.71.71,0,0,1,.08-.15v0s0,0,0,0v0s0,0,0,0V37a.11.11,0,0,0,0-.05c0-.07,0-.08,0,0l.05-.12.06-.12h0l0,0,0-.06v0l0-.07,0,0,0,0a.42.42,0,0,1,0-.1h0c.07-.16.13-.31.21-.46a.64.64,0,0,0,0-.07.46.46,0,0,1,0-.08s.05-.12.06-.15,0,0,0,0a.4.4,0,0,1,.14-.22l.11-.24h0s0,0,0-.08l0-.08s0,0,0,0h0s0-.06.05-.12,0,0,0,0a.67.67,0,0,0,.06-.12h0c.05-.1.09-.2.13-.29a1.82,1.82,0,0,1,.14-.28l0-.06s0,0,0,0l0,0a.08.08,0,0,1,0,0v0h0s0,0,0,0c-5.55-7.38-15.37-18.78-23.9-26a2,2,0,0,0-2.7,2.36c.47,1.26,1.84,1.93,2.71,2.91a208.56,208.56,0,0,1,18.11,19.72c1.18,1.52,1.6,2,2.15,2.75.44.53.76,1.25,1.45,1.47a1.88,1.88,0,0,0,.53.16Z" transform="translate(0 -1.16)"/><path class="cls-1" d="M181.87,48.72a.08.08,0,0,1,0,0s0,0,0,0,0-.14,0-.12l0-.06h0v0a.1.1,0,0,1,0,0s0,0,0,0h0l0,0,0,0,0,0a0,0,0,0,1,0,0s0,0,0-.08,0-.07,0,0l.06-.11h0l0,0a.14.14,0,0,1,0-.06l0,0h0l0,0,0,0,0-.07h0a.08.08,0,0,0,0,0l.06-.11h0v0l0,0a.05.05,0,0,0,0,0,.46.46,0,0,1,.09-.15v0h0l0,0,0-.06,0,0s0,0,0-.05a.38.38,0,0,1,.06-.13l0,.1h0c0-.05,0-.1,0-.15l0,.14h0a.54.54,0,0,1,.09-.22h0l0,0,0,0v0a.51.51,0,0,1,.15-.29l.07-.06h0a.5.5,0,0,1,0-.13.3.3,0,0,1,0-.1.67.67,0,0,1,.06-.12l0-.05a.87.87,0,0,1,.1-.19v0s0,0,0,0v0s.06-.11.08-.13h0s0-.07.06-.13l0-.09a1.16,1.16,0,0,1,.11-.16h0l.09-.12h0l0-.07h0A194.1,194.1,0,0,0,162.7,20.25c-2.68-2.52-5.2-5.21-8-7.61-.74-.76-1.77-1.62-2.88-1A2,2,0,0,0,150.66,14c.55,1.38,2.08,2.1,3.07,3.17a215.68,215.68,0,0,1,20.15,21.51c3,3.41,4.5,5.88,7.58,9.94a1.85,1.85,0,0,0,.34.23Z" transform="translate(0 -1.16)"/><path class="cls-1" d="M176.27,57.8l0,0,0,0,0,0,0-.06.06-.08a.67.67,0,0,1,.06-.12,2,2,0,0,0,.1-.21,1.86,1.86,0,0,1,.31-.46.21.21,0,0,0,0-.06l.07-.08c-.05.06-.06.06,0,0l.08-.08a.35.35,0,0,0,0-.08,4,4,0,0,1,.23-.34c.08-.12.16-.24.25-.35h0a1.22,1.22,0,0,1,.27-.42.3.3,0,0,1,0-.08l.06-.11v0c0-.06,0-.06,0,0a.51.51,0,0,0,.05-.12,1.63,1.63,0,0,1,.11-.17.83.83,0,0,1,.12-.16s0,0,0,0l.05-.06A148.94,148.94,0,0,0,155,25.74c-2.08-1.94-4.28-3.75-6.41-5.63-1.22-.88-2.28-2.3-3.77-2.68a2,2,0,0,0-2.19,2.5c.91,1.76,1.09,1.06,2.28,2.28A134.39,134.39,0,0,1,167,45.12c2,2.31,5.81,8.48,8.61,12.32a1.68,1.68,0,0,0,.7.36Z" transform="translate(0 -1.16)"/><path class="cls-1" d="M171.22,62.56a84.15,84.15,0,0,0-4.28-7.37h0l-.12-.2,0,0h0l0,0,0,0h0l-.31-.47h0a114.13,114.13,0,0,0-8.88-11.57s-.09-.06-.11-.1,0,0,0-.05l-.06-.08h0q-3-3.44-6.16-6.69a0,0,0,0,1,0,0s0,0,0,0l-.78-.82h0l0,0a1.92,1.92,0,0,1-.45-.45c-.6-.62-1.2-1.23-1.82-1.83h0a93.52,93.52,0,0,0-9-7.55,23.17,23.17,0,0,0-2.15-1.59,1.55,1.55,0,0,0-.77-.17,2,2,0,0,0-1.93,2.53c.59,1.46,2.32,2.1,3.42,3.13,6.33,4.59,16.9,15.65,21.52,22a136.18,136.18,0,0,1,7.77,11.69c.47.76.6,1.81,1.35,2.36A2,2,0,0,0,171.22,62.56Z" transform="translate(0 -1.16)"/><path class="cls-1" d="M238.07,35.1c-2.52-1.24-3.2,1.85-3.93,3.58-1.21,3.2-2.43,6.39-3.72,9.56-6,15.47-16.23,30.93-27.88,44.6a.21.21,0,0,1,0,.06s0,0,0,0h0s0,0-.05.05l0,0h0l-.08.1,0,0,0,0,.05-.06h0l-.06.06h0l0,0h0l0,0h0l0,0h0c-2.54,3-5.14,5.85-7.79,8.63a.53.53,0,0,1-.06.1l-.09.08a1.14,1.14,0,0,1-.11.11l-.06.05v0s0,0,0,0l-.08.08h0c-.43.46-.89.89-1.32,1.35l-.06.06h0c-.07.07-.14.16-.2.23l-.16.18-.06.07s0,0,0,0,0,0,0,0a.8.8,0,0,1-.17.15h0a1.47,1.47,0,0,1-.1.13l0,0-.11.11,0,.06h0l-.1.09,0,0c-4.49,4.52-9.24,8.75-14.11,12.84-5.43,4.63-9.09,7.8-15.6,11.39-1.38.94-3.77,1.11-4.35,2.82a2,2,0,0,0,2.94,2.26c11.54-5.17,20.8-14.51,30.2-22.78,18.71-18.2,35.07-39.46,44.41-64,1.19-2.92,2.25-5.89,3.44-8.81A5.19,5.19,0,0,0,239,37.1,1.94,1.94,0,0,0,238.07,35.1Z" transform="translate(0 -1.16)"/><path class="cls-1" d="M230.39,24.8c-2.73-.55-2.88,3.1-3.83,4.84-1.47,3.82-2.95,7.63-4.52,11.4-7.9,20.64-22.21,40.86-37.61,57.73-9.22,10-17.85,17.06-29.68,23.35a56.12,56.12,0,0,1-5,2.53c-.8.31-1.67.74-1.88,1.65a2,2,0,0,0,2.94,2.26c19.11-8.45,34.52-23.18,47.15-39.55,11.68-14.34,21.56-30.18,28.19-47.48,1.61-3.86,3.1-7.78,4.62-11.68C231.4,28.12,233,25.71,230.39,24.8Z" transform="translate(0 -1.16)"/><path class="cls-1" d="M221.09,16.81c-2.75-.55-2.86,3.13-3.86,4.86-1.87,4.57-3.34,8.49-4.85,11.88a210,210,0,0,1-17.94,32.38c-6.07,9.16-10.91,16-18.38,23.94-10.57,10.74-20.21,19.15-33.8,25.76-1.92.83-3.4,1.52-4.26,1.81a2.62,2.62,0,0,0-1.87,1.11,2,2,0,0,0,2.26,2.93C155.71,115.12,170,102.39,182.31,89a227.63,227.63,0,0,0,34.27-55.11c1.73-4.06,3.3-8.19,5-12.28C222.26,19.92,223.52,17.64,221.09,16.81Z" transform="translate(0 -1.16)"/><path class="cls-1" d="M205.87,8.79c-3.23-.59-2.67,3.94-3.45,6a98.48,98.48,0,0,1-3.68,12.47,153.47,153.47,0,0,1-12,25.07,126.75,126.75,0,0,1-18,26.46A140.05,140.05,0,0,1,148,98c-2.69,2.09-8.67,6.73-13.36,9-1.6.76-3.19,1.58-4.81,2.31a2.69,2.69,0,0,0-1.67,1.11,2,2,0,0,0,2.26,2.93c7.41-2.91,14-7.38,20.2-12.34a134.74,134.74,0,0,0,15.85-14A132,132,0,0,0,189.8,55a164.42,164.42,0,0,0,13.84-29.6A120.86,120.86,0,0,0,206.89,13C207.26,11.42,207.94,9.43,205.87,8.79Z" transform="translate(0 -1.16)"/><path class="cls-1" d="M196.45,5.82c-2.8-.57-2.63,2.89-3.22,4.7-1.17,4.35-2.09,8.77-3.63,13a280.9,280.9,0,0,1-12.78,25.9,99.51,99.51,0,0,1-17.33,22c-10.6,10.37-19.5,19.15-33,25.14-1.72.91-3.74,1.57-4.31,1.87a2,2,0,1,0,1.06,3.85c5.71-2.2,15.33-7,21.54-12a214.27,214.27,0,0,0,25.62-24.69,94.66,94.66,0,0,0,6.17-8.25.67.67,0,0,0,.06-.12,1.86,1.86,0,0,1,.31-.46.21.21,0,0,0,0-.06l.07-.08c-.05.06-.06.06,0,0l.08-.08a.21.21,0,0,1,0-.06v0a4,4,0,0,1,.23-.34.76.76,0,0,1,.08-.11c.2-.31.39-.63.59-.95l0-.07a1.63,1.63,0,0,1,.11-.17l.08-.11c1.63-2.58,3.17-5.24,4.62-7.93a1,1,0,0,1,0-.1c.18-.33.35-.66.52-1,0,0,0,0,0,0l0-.1a0,0,0,0,0,0,0l.06-.11q1.77-3.36,3.38-6.8c.48-1,1-2,1.48-3.06a.15.15,0,0,0,0-.06s0,0,0,0l0,0s0,0,0,0a89,89,0,0,0,5.91-13.69c1-3.61,1.93-7.25,2.85-10.89C197.66,9.12,198.74,6.53,196.45,5.82Z" transform="translate(0 -1.16)"/><path class="cls-1" d="M239,105.68c-.49-1.29-1-2.57-1.55-3.84C234,93.92,229,86.75,224.53,79.39a2,2,0,0,0-3.46,2c3.63,5.84,7.4,11.61,10.65,17.68a61,61,0,0,1,3.59,8c.31.77.47,1.71,1.27,2.14a2,2,0,0,0,2.74-.71C239.9,107.6,239.38,106.61,239,105.68Z" transform="translate(0 -1.16)"/><path class="cls-1" d="M233.64,113c-1-2.13-2.14-4.21-3.29-6.27-2.37-3.85-5.07-9.25-6.34-11.8a2,2,0,0,0-3.5,1.74c2.79,6.54,6.91,12.4,9.91,18.83a2,2,0,0,0,3.89,0C234.57,114.56,234,113.77,233.64,113Z" transform="translate(0 -1.16)"/><circle class="cls-2" cx="182.16" cy="70.5" r="66.5"/><path class="cls-1" d="M433.83,105.45c-4.13-26.21-23.44-47.88-46.59-59.69-11.07-5.24-23.26-8.94-35.62-8.4-18.77,1.2-36.18,10.16-50.71,21.7-7.64,5.88-14.44,12.72-21.23,19.56a.2.2,0,0,0,0-.07,3.27,3.27,0,0,1-.3.35,2.61,2.61,0,0,1-1.12,1.25c-.09,0-.16.11-.25.16l-.15.12a33.59,33.59,0,0,1-4.81,5.16,54.86,54.86,0,0,1-5.77,5.19l-.1.11h0c-8.12,7.62-18.4,16.61-23,20.17-13.25,9.52-23.56,14.73-38.21,18.89l-2.51.62a28,28,0,0,1-10.86,10.12c-.51.26-1,.49-1.54.71a107,107,0,0,0,13.43-2.29,123.55,123.55,0,0,0,39.93-17.8c16.79-12.09,31.44-26.86,46.05-41.43C311.76,58,340.24,40,367.61,47.57c10.27,2.86,15.08,4.84,24,10.54C399,62.8,405,68.18,412,76.59c3.35,4,9.77,15.14,11.31,21.07,4,12.94,4.83,29.67,3.68,40.37-4.12,22.54-15.3,42.95-31.23,54.12-1.12.79-2.29,1.5-3.47,2.2a1.77,1.77,0,0,1-.36.44,5.41,5.41,0,0,1-.58.43h0l-.07,0a3.83,3.83,0,0,1-.58.27,6.15,6.15,0,0,1-1.77,1l0,0a12.38,12.38,0,0,1-2.62,1.32l-.63.27.05,0-.25.11a14.36,14.36,0,0,1-1.56.67c-.68.21-1.38.43-2.07.63-.17,0-.34.09-.52.12h0a19.25,19.25,0,0,1-8.88,1.11l-.09,0a2.2,2.2,0,0,0-.52-.09h-.05a12.9,12.9,0,0,1-2.24-.71,4.46,4.46,0,0,0-1.86-.62c-3.35-.58-5.35,2.76-4.6,5.44a3.35,3.35,0,0,1,.63.86,2.2,2.2,0,0,1,.18.14l.06.05a3,3,0,0,1,.78.54c.14.17.28.35.41.53a3.51,3.51,0,0,1,.85.57,2.1,2.1,0,0,1,.25.28c9.32,4,19.65,0,28.05-4.7,22.43-12.09,35.47-36.73,40.62-60.95C437,129.94,435.75,117.51,433.83,105.45Z" transform="translate(0 -1.16)"/></svg>